<svg width="92" height="57" viewBox="0 0 92 57" fill="none" xmlns="http://www.w3.org/2000/svg">
<g clip-path="url(#clip0_1787_2165)">
<path d="M34.9148 39.5781C34.9148 48.9098 27.2188 56.489 17.7074 56.489C8.19601 56.489 0.5 48.9098 0.5 39.5781C0.5 30.2464 8.19601 22.6672 17.7074 22.6672C27.2188 22.6672 34.9148 30.2464 34.9148 39.5781Z" stroke="#1C1C1C"/>
<path d="M49.575 39.4032C49.575 41.0614 48.2055 42.42 46.4983 42.42C44.7911 42.42 43.4216 41.0614 43.4216 39.4032C43.4216 37.745 44.7911 36.3864 46.4983 36.3864C48.2055 36.3864 49.575 37.745 49.575 39.4032Z" fill="#00ABC2" stroke="#1C1C1C"/>
<path d="M91.5 39.5781C91.5 48.9098 83.8039 56.489 74.2926 56.489C64.7812 56.489 57.0852 48.9098 57.0852 39.5781C57.0852 30.2464 64.7812 22.6672 74.2926 22.6672C83.8039 22.6672 91.5 30.2464 91.5 39.5781Z" stroke="#1C1C1C"/>
<path d="M28.5454 8.44446H41.3418" stroke="#1C1C1C" stroke-miterlimit="10" stroke-linecap="round"/>
<path d="M56.0703 0.718567L68.8667 0.718567" stroke="#1C1C1C" stroke-miterlimit="10" stroke-linecap="round"/>
<path d="M36.2651 13.5197H59.8472" stroke="#1C1C1C" stroke-miterlimit="10" stroke-linecap="round"/>
<path d="M44.9622 39.5756L66.1536 5.10913" stroke="#1C1C1C" stroke-miterlimit="10" stroke-linecap="round"/>
<path d="M59.8486 13.5185L74.2944 39.5756" stroke="#1C1C1C" stroke-miterlimit="10" stroke-linecap="round"/>
<path d="M17.7019 39.5756L36.2618 13.5185" stroke="#1C1C1C" stroke-miterlimit="10" stroke-linecap="round"/>
<path d="M22.2549 39.5743H48.0608" stroke="#1C1C1C" stroke-miterlimit="10" stroke-linecap="round"/>
</g>
<defs>
<clipPath id="clip0_1787_2165">
<rect width="92" height="57" fill="white"/>
</clipPath>
</defs>
</svg>
