<svg width="59" height="47" viewBox="0 0 59 47" fill="none" xmlns="http://www.w3.org/2000/svg">
<path d="M12.2434 32.5392C12.2434 40.0595 6.0408 46.1703 -1.62832 46.1703C-9.29743 46.1703 -15.5 40.0595 -15.5 32.5392C-15.5 25.019 -9.29743 18.9082 -1.62832 18.9082C6.0408 18.9082 12.2434 25.019 12.2434 32.5392Z" stroke="#1C1C1C"/>
<path d="M24.1418 32.3973C24.1418 33.6896 23.0739 34.7516 21.7389 34.7516C20.4038 34.7516 19.3359 33.6896 19.3359 32.3973C19.3359 31.105 20.4038 30.043 21.7389 30.043C23.0739 30.043 24.1418 31.105 24.1418 32.3973Z" fill="#00ABC2" stroke="#1C1C1C"/>
<path d="M58.1691 32.5392C58.1691 40.0595 51.9666 46.1703 44.2975 46.1703C36.6284 46.1703 30.4258 40.0595 30.4258 32.5392C30.4258 25.019 36.6284 18.9082 44.2975 18.9082C51.9666 18.9082 58.1691 25.019 58.1691 32.5392Z" stroke="#1C1C1C"/>
<path d="M7.16797 7.27051H17.5538" stroke="#1C1C1C" stroke-miterlimit="10" stroke-linecap="round"/>
<path d="M29.5078 1L39.8936 1" stroke="#1C1C1C" stroke-miterlimit="10" stroke-linecap="round"/>
<path d="M13.4336 11.3896H32.5733" stroke="#1C1C1C" stroke-miterlimit="10" stroke-linecap="round"/>
<path d="M20.4922 32.5372L37.6916 4.56348" stroke="#1C1C1C" stroke-miterlimit="10" stroke-linecap="round"/>
<path d="M32.5742 11.3887L44.2987 32.5372" stroke="#1C1C1C" stroke-miterlimit="10" stroke-linecap="round"/>
<path d="M-1.63281 32.5372L13.4308 11.3887" stroke="#1C1C1C" stroke-miterlimit="10" stroke-linecap="round"/>
<path d="M2.0625 32.5361H23.0071" stroke="#1C1C1C" stroke-miterlimit="10" stroke-linecap="round"/>
</svg>
