<svg width="73" height="61" viewBox="0 0 73 61" fill="none" xmlns="http://www.w3.org/2000/svg">
<path d="M11.5292 21.7193C11.3126 21.5481 11.2759 21.2336 11.4472 21.017C11.6185 20.8004 11.9329 20.7637 12.1495 20.935L11.5292 21.7193ZM20.4606 21.7446L16.5118 24.3469L15.9615 23.5119L19.9104 20.9097L20.4606 21.7446ZM14.756 24.271L11.5292 21.7193L12.1495 20.935L15.3762 23.4866L14.756 24.271ZM16.5118 24.3469C15.9714 24.703 15.2636 24.6724 14.756 24.271L15.3762 23.4866C15.5454 23.6204 15.7814 23.6306 15.9615 23.5119L16.5118 24.3469Z" fill="#DCEFF4"/>
<path d="M37.3696 50.708L62.6702 50.708" stroke="#DCEFF4" stroke-linecap="round" stroke-linejoin="round"/>
<path d="M97.4585 26.4332L0.999967 26.4332" stroke="#DCEFF4" stroke-linecap="round" stroke-linejoin="round"/>
<path d="M27.8818 59.811C22.6419 59.811 18.3941 55.7355 18.3941 50.708C18.3941 45.6805 22.6419 41.605 27.8818 41.605C33.1218 41.605 37.3696 45.6805 37.3696 50.708C37.3696 55.7355 33.1218 59.811 27.8818 59.811Z" stroke="#DCEFF4" stroke-linecap="round" stroke-linejoin="round"/>
<path d="M72.158 59.811C66.918 59.811 62.6702 55.7355 62.6702 50.708C62.6702 45.6805 66.918 41.605 72.158 41.605C77.3979 41.605 81.6457 45.6805 81.6457 50.708C81.6457 55.7355 77.3979 59.811 72.158 59.811Z" stroke="#DCEFF4" stroke-linecap="round" stroke-linejoin="round"/>
<path d="M17.6035 50.708H4.44492C3.53127 50.708 2.65503 50.3783 2.00897 49.7915C1.36292 49.2047 0.999973 48.4087 0.999973 47.5788V22.5455L20.6362 1.76395C20.9596 1.41245 21.364 1.12973 21.8208 0.935752C22.2777 0.741778 22.7759 0.641281 23.2802 0.641357H94.0135C94.9272 0.641357 95.8034 0.971037 96.4495 1.55787C97.0955 2.1447 97.4585 2.94062 97.4585 3.77052V47.5788C97.4585 48.4087 97.0955 49.2047 96.4495 49.7915C95.8034 50.3783 94.9272 50.708 94.0135 50.708H82.5952" stroke="#DCEFF4" stroke-linecap="round" stroke-linejoin="round"/>
<path d="M41.8553 18.3036C39.7112 18.3036 37.9345 16.6361 37.9345 14.5326C37.9345 12.4291 39.7112 10.7616 41.8553 10.7616C43.9993 10.7616 45.7761 12.4291 45.7761 14.5326C45.7761 16.6361 43.9993 18.3036 41.8553 18.3036Z" stroke="#DCEFF4"/>
<line y1="-0.5" x2="8.39185" y2="-0.5" transform="matrix(0 1 1 0 42.7108 17.8036)" stroke="#DCEFF4"/>
<path d="M63.9933 18.3036C61.8492 18.3036 60.0725 16.6361 60.0725 14.5326C60.0725 12.4291 61.8492 10.7616 63.9933 10.7616C66.1373 10.7616 67.9141 12.4291 67.9141 14.5326C67.9141 16.6361 66.1373 18.3036 63.9933 18.3036Z" stroke="#DCEFF4"/>
<line y1="-0.5" x2="8.39185" y2="-0.5" transform="matrix(0 1 1 0 64.8486 17.8036)" stroke="#DCEFF4"/>
<path d="M19.9213 18.3036C17.7772 18.3036 16.0005 16.6361 16.0005 14.5326C16.0005 12.4291 17.7772 10.7616 19.9213 10.7616C22.0653 10.7616 23.842 12.4291 23.842 14.5326C23.842 16.6361 22.0653 18.3036 19.9213 18.3036Z" stroke="#DCEFF4"/>
<line y1="-0.5" x2="8.39185" y2="-0.5" transform="matrix(0 1 1 0 20.7766 17.8036)" stroke="#DCEFF4"/>
<path d="M31.0444 0.641357V26.4333" stroke="#DCEFF4" stroke-linecap="round" stroke-linejoin="round"/>
<path d="M53.1825 0.641357V26.4333" stroke="#DCEFF4" stroke-linecap="round" stroke-linejoin="round"/>
<path d="M10.7962 25.8272L4.53662 18.3272" stroke="#DCEFF4" stroke-linecap="round"/>
<path d="M72.1401 55.8271C69.0032 55.8271 66.4238 53.3845 66.4238 50.3271C66.4238 47.2698 69.0032 44.8271 72.1401 44.8271C75.2769 44.8271 77.8564 47.2698 77.8564 50.3271C77.8564 53.3845 75.2769 55.8271 72.1401 55.8271Z" fill="#74C1D2" stroke="#DCEFF4"/>
<path d="M27.6971 55.6272C24.5602 55.6272 21.9808 53.1845 21.9808 50.1272C21.9808 47.0699 24.5602 44.6272 27.6971 44.6272C30.8339 44.6272 33.4134 47.0699 33.4134 50.1272C33.4134 53.1845 30.8339 55.6272 27.6971 55.6272Z" fill="#74C1D2" stroke="#DCEFF4"/>
<path d="M87.9976 34.3271L11.8394 34.3271" stroke="#DCEFF4" stroke-linecap="round"/>
</svg>
