<svg width="98" height="61" viewBox="0 0 98 61" fill="none" xmlns="http://www.w3.org/2000/svg">
<g clip-path="url(#clip0_1787_2164)">
<path d="M11.5293 22.7193C11.3127 22.5481 11.276 22.2336 11.4473 22.017C11.6185 21.8004 11.933 21.7637 12.1496 21.935L11.5293 22.7193ZM20.4607 22.7446L16.5118 25.3469L15.9616 24.5119L19.9104 21.9097L20.4607 22.7446ZM14.756 25.271L11.5293 22.7193L12.1496 21.935L15.3763 24.4866L14.756 25.271ZM16.5118 25.3469C15.9714 25.703 15.2636 25.6724 14.756 25.271L15.3763 24.4866C15.5455 24.6204 15.7814 24.6306 15.9616 24.5119L16.5118 25.3469Z" fill="#DCEFF4"/>
<path d="M37.3696 51.0186L62.6702 51.0186" stroke="#DCEFF4" stroke-linecap="round" stroke-linejoin="round"/>
<path d="M97.4585 26.7671L0.999967 26.7671" stroke="#DCEFF4" stroke-linecap="round" stroke-linejoin="round"/>
<path d="M27.8819 60.1129C22.642 60.1129 18.3942 56.0412 18.3942 51.0186C18.3942 45.996 22.642 41.9243 27.8819 41.9243C33.1218 41.9243 37.3696 45.996 37.3696 51.0186C37.3696 56.0412 33.1218 60.1129 27.8819 60.1129Z" stroke="#DCEFF4" stroke-linecap="round" stroke-linejoin="round"/>
<path d="M72.158 60.1129C66.9181 60.1129 62.6703 56.0412 62.6703 51.0186C62.6703 45.996 66.9181 41.9243 72.158 41.9243C77.398 41.9243 81.6458 45.996 81.6458 51.0186C81.6458 56.0412 77.398 60.1129 72.158 60.1129Z" stroke="#DCEFF4" stroke-linecap="round" stroke-linejoin="round"/>
<path d="M17.6035 51.0185H4.44492C3.53127 51.0185 2.65503 50.6892 2.00897 50.1029C1.36292 49.5167 0.999973 48.7215 0.999973 47.8924V22.8831L20.6362 2.12151C20.9596 1.77035 21.364 1.4879 21.8208 1.29411C22.2777 1.10032 22.7759 0.999923 23.2802 1H94.0135C94.9272 1 95.8034 1.32936 96.4495 1.91563C97.0955 2.5019 97.4585 3.29705 97.4585 4.12616V47.8924C97.4585 48.7215 97.0955 49.5167 96.4495 50.1029C95.8034 50.6892 94.9272 51.0185 94.0135 51.0185H82.5952" stroke="#DCEFF4" stroke-linecap="round" stroke-linejoin="round"/>
<path d="M86.1312 18.6457C83.9876 18.6457 82.2105 16.9801 82.2105 14.8778C82.2105 12.7756 83.9876 11.11 86.1312 11.11C88.2748 11.11 90.052 12.7756 90.052 14.8778C90.052 16.9801 88.2748 18.6457 86.1312 18.6457Z" stroke="#DCEFF4"/>
<line y1="-0.5" x2="8.38379" y2="-0.5" transform="matrix(0 1 1 0 86.9866 18.1458)" stroke="#DCEFF4"/>
<path d="M41.8554 18.6457C39.7118 18.6457 37.9346 16.9801 37.9346 14.8778C37.9346 12.7756 39.7118 11.11 41.8554 11.11C43.9989 11.11 45.7761 12.7756 45.7761 14.8778C45.7761 16.9801 43.9989 18.6457 41.8554 18.6457Z" stroke="#DCEFF4"/>
<line y1="-0.5" x2="8.38379" y2="-0.5" transform="matrix(0 1 1 0 42.7107 18.1458)" stroke="#DCEFF4"/>
<path d="M63.9933 18.6457C61.8497 18.6457 60.0725 16.9801 60.0725 14.8778C60.0725 12.7756 61.8497 11.11 63.9933 11.11C66.1369 11.11 67.9141 12.7756 67.9141 14.8778C67.9141 16.9801 66.1369 18.6457 63.9933 18.6457Z" stroke="#DCEFF4"/>
<line y1="-0.5" x2="8.38379" y2="-0.5" transform="matrix(0 1 1 0 64.8486 18.1458)" stroke="#DCEFF4"/>
<path d="M19.9213 18.6457C17.7777 18.6457 16.0005 16.9801 16.0005 14.8778C16.0005 12.7756 17.7777 11.11 19.9213 11.11C22.0649 11.11 23.842 12.7756 23.842 14.8778C23.842 16.9801 22.0649 18.6457 19.9213 18.6457Z" stroke="#DCEFF4"/>
<line y1="-0.5" x2="8.38379" y2="-0.5" transform="matrix(0 1 1 0 20.7766 18.1458)" stroke="#DCEFF4"/>
<path d="M31.0444 1V26.7671" stroke="#DCEFF4" stroke-linecap="round" stroke-linejoin="round"/>
<path d="M75.3206 1V26.7671" stroke="#DCEFF4" stroke-linecap="round" stroke-linejoin="round"/>
<path d="M53.1826 1V26.7671" stroke="#DCEFF4" stroke-linecap="round" stroke-linejoin="round"/>
<path d="M10.7963 26.8272L4.53668 19.3272" stroke="#DCEFF4" stroke-linecap="round"/>
<path d="M72.1401 56.8271C69.0033 56.8271 66.4238 54.3845 66.4238 51.3271C66.4238 48.2698 69.0033 45.8271 72.1401 45.8271C75.277 45.8271 77.8564 48.2698 77.8564 51.3271C77.8564 54.3845 75.277 56.8271 72.1401 56.8271Z" fill="#74C1D2" stroke="#DCEFF4"/>
<path d="M27.697 56.6272C24.5602 56.6272 21.9807 54.1845 21.9807 51.1272C21.9807 48.0699 24.5602 45.6272 27.697 45.6272C30.8339 45.6272 33.4133 48.0699 33.4133 51.1272C33.4133 54.1845 30.8339 56.6272 27.697 56.6272Z" fill="#74C1D2" stroke="#DCEFF4"/>
<path d="M87.9976 35.3271L11.8394 35.3271" stroke="#DCEFF4" stroke-linecap="round"/>
</g>
<defs>
<clipPath id="clip0_1787_2164">
<rect width="98" height="61" fill="white"/>
</clipPath>
</defs>
</svg>
