<svg width="71" height="136" viewBox="0 0 71 136" fill="none" xmlns="http://www.w3.org/2000/svg">
<path fill-rule="evenodd" clip-rule="evenodd" d="M35.2941 64.1314C52.032 64.1314 65.5882 50.6636 65.5882 34.0657C65.5882 17.4678 52.032 4 35.2941 4C18.5562 4 5 17.4678 5 34.0657C5 50.6636 18.5562 64.1314 35.2941 64.1314ZM37.25 65.0717C53.6222 64.0694 66.5882 50.5707 66.5882 34.0657C66.5882 16.9086 52.5774 3 35.2941 3C18.0109 3 4 16.9086 4 34.0657C4 50.5707 16.9661 64.0695 33.3383 65.0717V65.1602V135V136H34.3383H36.25H37.25V135V65.1602V65.0717ZM35.2941 60.2478C49.8716 60.2478 61.6764 48.5186 61.6764 34.0653C61.6764 19.612 49.8716 7.88281 35.2941 7.88281C20.7166 7.88281 8.91174 19.612 8.91174 34.0653C8.91174 48.5186 20.7166 60.2478 35.2941 60.2478ZM35.2941 61.2478C50.417 61.2478 62.6764 49.0778 62.6764 34.0653C62.6764 19.0528 50.417 6.88281 35.2941 6.88281C20.1712 6.88281 7.91174 19.0528 7.91174 34.0653C7.91174 49.0778 20.1712 61.2478 35.2941 61.2478ZM34.3383 65.1602H36.25V135H34.3383V65.1602ZM37.0283 38.6536V21.6309H34.1008V38.6536H37.0283ZM38.0283 21.6309V20.6309H37.0283H34.1008H33.1008V21.6309V38.6536V38.9751H30.1118L35.5646 48.3506L41.0173 38.9751H38.0283V38.6536V21.6309Z" fill="black"/>
</svg>
