<svg width="40" height="40" viewBox="0 0 40 40" fill="none" xmlns="http://www.w3.org/2000/svg">
<g clip-path="url(#clip0_2078_2572)">
<circle cx="20" cy="20" r="19" stroke="#51B1C7" stroke-width="2"/>
<path d="M18.4703 22.84L17.8303 13.816L17.6703 9.56H22.3423L22.1823 13.816L21.5423 22.84H18.4703ZM20.0063 31.384C19.0889 31.384 18.3209 31.0853 17.7023 30.488C17.1049 29.8693 16.8063 29.08 16.8063 28.12C16.8063 27.1813 17.1049 26.4133 17.7023 25.816C18.3209 25.2187 19.0889 24.92 20.0063 24.92C20.9236 24.92 21.6809 25.2187 22.2783 25.816C22.8969 26.4133 23.2063 27.1813 23.2063 28.12C23.2063 29.08 22.8969 29.8693 22.2783 30.488C21.6809 31.0853 20.9236 31.384 20.0063 31.384Z" fill="#51B1C7"/>
</g>
<defs>
<clipPath id="clip0_2078_2572">
<rect width="40" height="40" fill="white"/>
</clipPath>
</defs>
</svg>
