<svg xmlns="http://www.w3.org/2000/svg" viewBox="0 0 2232 1167.48"><defs><style>.b1cdc098-e3db-4057-ab20-4be7fb36c03d{fill:#262626;}</style></defs><g id="a562a939-e04e-4178-af21-ffd7378d85c1" data-name="NOTES"><path class="b1cdc098-e3db-4057-ab20-4be7fb36c03d" d="M42.82,282.44q0-57.7,17.6-102.41t47.85-75.31a205.08,205.08,0,0,1,71.09-46.8q40.81-16.19,87.27-16.19,44.34,0,79.53,18T406,100.85l-66.16,74.61a139.46,139.46,0,0,0-33.08-21.82q-16.89-7.74-40.12-7.74a86.91,86.91,0,0,0-39.41,9.15,93.26,93.26,0,0,0-31.67,26Q182.17,198,174.43,222.61t-7.74,55.6q0,64.77,29.56,99.24t76,34.49q22.51,0,40.47-10.21a133.14,133.14,0,0,0,32.73-26.39l66.16,73.2q-29.56,33.78-66.86,50.67a190.61,190.61,0,0,1-79.53,16.89,250,250,0,0,1-85.17-14.42A198.73,198.73,0,0,1,109.33,458q-30.61-29.21-48.56-73.2T42.82,282.44Z"/><path class="b1cdc098-e3db-4057-ab20-4be7fb36c03d" d="M628.11,516.1q-41.54,0-76-16.18A165.28,165.28,0,0,1,493,453.11q-24.64-30.62-38.35-75.31t-13.73-101q0-56.31,13.73-100.3T493,102.61a161.38,161.38,0,0,1,59.12-45.39q34.49-15.48,76-15.49t76,15.49A160.16,160.16,0,0,1,763.24,103q24.63,30.27,38.36,73.9t13.72,99.95q0,56.31-13.72,101t-38.36,75.31a165.45,165.45,0,0,1-59.12,46.81Q669.62,516.09,628.11,516.1Zm0-104.16q29.55,0,46.45-36.25t16.89-98.88q0-62.64-16.89-96.78T628.11,145.9q-29.57,0-46.46,34.13t-16.89,96.78q0,62.64,16.89,98.88T628.11,411.94Z"/><path class="b1cdc098-e3db-4057-ab20-4be7fb36c03d" d="M888.23,50.18h118.95l38.71,149.21,12.66,59.12h2.12l12.66-59.12,36.6-149.21h119V507.66h-97.13V400q0-20.4,1.76-51.73t3.87-64.75q2.11-33.42,4.93-64.4t4.92-51.37h-2.11l-38,135.83-23.93,82.35h-52.08l-23.93-82.35-35.9-135.83h-2.81q2.1,20.42,4.92,51.37t4.93,64.4q2.11,33.43,3.87,64.75T984,400V507.66H888.23Z"/><path class="b1cdc098-e3db-4057-ab20-4be7fb36c03d" d="M1322.13,50.18h177.36a323.51,323.51,0,0,1,70,7.39q33.42,7.38,58.41,25.34t39.77,47.15q14.77,29.22,14.78,72.14,0,42.23-15.13,72.5t-40.47,49.61q-25.34,19.37-58.42,28.86a248.4,248.4,0,0,1-69,9.5h-56.31v145h-121ZM1493.86,267q35.9,0,53.14-16.89t17.24-47.86q0-31-18.3-43.63t-52.08-12.67h-50.68V267Z"/><path class="b1cdc098-e3db-4057-ab20-4be7fb36c03d" d="M53.38,996.1H157.54V741.32H53.38V640H382.76V741.32H278.6V996.1H382.76v101.35H53.38Z"/><path class="b1cdc098-e3db-4057-ab20-4be7fb36c03d" d="M481.43,640H602.49V996.1h195v101.35h-316Z"/><path class="b1cdc098-e3db-4057-ab20-4be7fb36c03d" d="M874.37,640H1184V741.32H995.42v71.79h160.47V914.46H995.42V996.1h195.66v101.35H874.37Z"/><path class="b1cdc098-e3db-4057-ab20-4be7fb36c03d" d="M1521.24,1097.45,1442.41,944h-43.64v153.43h-121V640H1448a339.43,339.43,0,0,1,70,7q33.42,7,58.42,23.93t39.76,45.39Q1631,744.85,1631,787.77q0,49.28-20.06,81.64a141.48,141.48,0,0,1-53.84,50.68l99.24,177.36ZM1398.77,848.3h40.82q73.2,0,73.2-60.53,0-29.57-18.65-40.82t-54.55-11.26h-40.82Z"/><rect class="b1cdc098-e3db-4057-ab20-4be7fb36c03d" x="1837.54" y="982.42" width="329.39" height="115.03"/></g></svg>
