<svg width="109" height="9" viewBox="0 0 109 9" fill="none" xmlns="http://www.w3.org/2000/svg">
<g id="smaller pattern">
<g id="BASE">
<path id="Vector" d="M60.3755 0.650699C58.0695 0.650699 56.2002 2.51975 56.2002 4.82535C56.2002 7.13095 58.0695 9 60.3755 9C62.6814 9 64.5508 7.13095 64.5508 4.82535C64.5508 2.51975 62.6814 0.650699 60.3755 0.650699Z" fill="#00B3CA"/>
<path id="Vector_2" d="M70.0942 9L82.6895 9C83.588 9 84.3164 8.27171 84.3164 7.37332L84.3164 2.27764C84.3164 1.37925 83.588 0.650956 82.6895 0.650956L70.0942 0.650957C69.1956 0.650957 68.4672 1.37925 68.4672 2.27764L68.4672 7.37332C68.4672 8.27171 69.1956 9 70.0942 9Z" fill="#92B252"/>
<path id="Vector_3" d="M96.4023 1.1507L96.4023 8.5L89.0517 8.5L89.0517 1.1507L96.4023 1.1507Z" stroke="white"/>
<path id="Vector_4" d="M101.076 3.43402L109 3.43402L109 0.65092L101.076 0.650921L101.076 3.43402Z" fill="#E5E5E5"/>
</g>
<g id="BASE_2">
<path id="Vector_5" d="M0.504845 4.82535C0.504845 2.79597 2.15026 1.1507 4.18015 1.1507C6.21005 1.1507 7.85547 2.79597 7.85547 4.82535C7.85547 6.85473 6.21005 8.5 4.18016 8.5C2.15026 8.5 0.504845 6.85473 0.504845 4.82535Z" stroke="white"/>
<path id="Vector_6" d="M13.8988 9L26.4942 9C27.3927 9 28.1211 8.27171 28.1211 7.37332L28.1211 2.27764C28.1211 1.37925 27.3927 0.650956 26.4942 0.650956L13.8988 0.650957C13.0003 0.650957 12.2719 1.37925 12.2719 2.27764L12.2719 7.37332C12.2719 8.27171 13.0003 9 13.8988 9Z" fill="#B771FF"/>
<path id="Vector_7" d="M52.2539 1.1507L52.2539 8.5L44.9033 8.5L44.9033 1.1507L52.2539 1.1507Z" stroke="white"/>
<path id="Vector_8" d="M39.7812 1.15098L39.7812 2.93408L32.8568 2.93408L32.8568 1.15098L39.7812 1.15098Z" stroke="white"/>
</g>
</g>
</svg>
