<svg width="687" height="342" viewBox="0 0 687 342" fill="none" xmlns="http://www.w3.org/2000/svg">
<path d="M0.812866 78.2049C0.812866 65.7833 2.70534 54.76 6.49028 45.1349C10.2752 35.5098 15.4215 27.4035 21.929 20.8159C28.4318 14.2283 36.2431 9.07984 44.858 5.70339C53.6344 2.21803 63.0182 0.47535 73.0096 0.47535C82.5451 0.47535 91.0967 2.41286 98.6645 6.28787C106.232 10.1629 112.667 14.589 117.968 19.5662L96.6258 43.6591C93.422 40.814 89.8287 38.4413 85.9548 36.6131C82.3225 34.9468 78.0086 34.1137 73.0129 34.1137C68.602 34.0837 64.2464 35.0961 60.3 37.0684C56.3149 39.0743 52.8253 41.9421 50.0838 45.4643C47.2043 49.1132 44.9322 53.5867 43.2677 58.8847C41.6032 64.1827 40.7709 70.1675 40.7709 76.8389C40.7709 90.7825 43.9494 101.465 50.3064 108.885C56.6634 116.306 64.8354 120.018 74.8225 120.023C79.6677 120.023 84.0193 118.924 87.8774 116.726C91.8254 114.463 95.3892 111.586 98.4354 108.204L119.777 131.842C113.42 139.114 106.231 144.568 98.2096 148.204C90.1494 151.848 81.3987 153.708 72.5548 153.658C63.1962 153.713 53.8994 152.138 45.0806 149.001C36.5681 145.962 28.7938 141.155 22.2677 134.896C15.6849 128.608 10.4634 120.729 6.60319 111.259C2.74297 101.789 0.812866 90.7707 0.812866 78.2049Z" fill="white"/>
<path d="M189.616 153.658C180.683 153.658 172.511 151.916 165.1 148.433C157.666 144.932 151.14 139.759 146.032 133.317C140.733 126.725 136.61 118.619 133.661 108.998C130.713 99.3775 129.237 88.5059 129.232 76.3836C129.232 64.2613 130.709 53.4651 133.661 43.995C136.614 34.5249 140.738 26.5714 146.032 20.1346C151.16 13.8261 157.691 8.80647 165.103 5.47734C172.52 2.14483 180.692 0.477497 189.619 0.475344C198.546 0.473191 206.718 2.14052 214.135 5.47734C221.569 8.82976 228.104 13.8955 233.206 20.2605C238.503 26.777 242.628 34.7315 245.581 44.1241C248.533 53.5167 250.009 64.2753 250.006 76.3998C250.006 88.5221 248.531 99.3937 245.581 109.014C242.63 118.635 238.505 126.742 233.206 133.333C228.096 139.774 221.57 144.947 214.135 148.449C206.716 151.919 198.543 153.656 189.616 153.658ZM189.616 120.023C195.971 120.023 200.966 116.121 204.6 108.317C208.234 100.513 210.051 89.8697 210.048 76.3868C210.048 62.9018 208.232 52.4845 204.6 45.1349C200.968 37.7853 195.973 34.1115 189.616 34.1137C183.257 34.1137 178.261 37.7874 174.629 45.1349C170.997 52.4823 169.181 62.8997 169.181 76.3868C169.181 89.8719 170.997 100.515 174.629 108.317C178.261 116.119 183.257 120.021 189.616 120.023Z" fill="white"/>
<path d="M273.526 3.204H311.897L324.384 51.3866L328.468 70.4775H329.152L333.235 51.3866L345.042 3.204H383.429V150.932H352.097V116.167C352.097 111.775 352.286 106.207 352.664 99.4625C353.043 92.7179 353.459 85.7482 353.913 78.5536C354.367 71.359 354.897 64.427 355.503 57.7577C356.11 51.0884 356.64 45.559 357.094 41.1694H356.41L344.152 85.0313L336.432 111.624H319.632L311.913 85.0313L300.332 41.1694H299.426C299.877 45.5654 300.406 51.0949 301.013 57.7577C301.619 64.4206 302.149 71.3526 302.603 78.5536C303.057 85.7504 303.473 92.72 303.852 99.4625C304.23 106.205 304.419 111.773 304.419 116.167V150.932H273.526V3.204Z" fill="white"/>
<path d="M413.494 3.204H470.706C478.298 3.17494 485.869 3.97513 493.287 5.59036C500.474 7.17912 506.756 9.9067 512.132 13.7731C517.509 17.6395 521.784 22.7147 524.958 28.9987C528.134 35.2891 529.724 43.0542 529.726 52.294C529.726 61.3852 528.099 69.189 524.845 75.7055C521.591 82.222 517.24 87.562 511.79 91.7254C506.341 95.8954 500.059 99.0019 492.945 101.045C485.707 103.109 478.214 104.142 470.687 104.113H452.523V150.936H413.49L413.494 3.204ZM468.89 73.219C476.611 73.219 482.325 71.401 486.032 67.7649C489.74 64.1289 491.594 58.9773 491.594 52.3101C491.594 45.6365 489.626 40.9402 485.69 38.2212C481.755 35.5022 476.155 34.1384 468.89 34.1298H452.542V73.219H468.89Z" fill="white"/>
<path d="M4.21932 308.658H37.8193V226.385H4.21932V193.667H110.471V226.385H76.8709V308.658H110.471V341.386H4.21932V308.658Z" fill="white"/>
<path d="M142.3 193.667H181.352V308.658H244.255V341.386H142.319L142.3 193.667Z" fill="white"/>
<path d="M269.055 193.667H368.935V226.385H308.103V249.568H359.868V282.295H308.103V308.658H371.219V341.386H269.055V193.667Z" fill="white"/>
<path d="M477.723 341.386L452.294 291.834H438.216V341.38H399.184V193.667H454.097C461.682 193.636 469.249 194.393 476.677 195.928C483.864 197.435 490.146 200.011 495.523 203.655C500.899 207.3 505.174 212.186 508.348 218.312C511.535 224.454 513.129 232.145 513.129 241.385C513.129 251.994 510.972 260.781 506.658 267.748C502.42 274.648 496.426 280.296 489.29 284.113L521.303 341.386H477.723ZM438.216 260.931H451.384C467.126 260.931 474.997 254.416 474.997 241.385C474.997 235.019 472.991 230.625 468.981 228.203C464.97 225.782 459.104 224.569 451.384 224.567H438.216V260.931Z" fill="white"/>
<path d="M686.01 304.241H579.755V341.386H686.01V304.241Z" fill="#01B4CB"/>
</svg>
