<svg width="256" height="256" viewBox="0 0 256 256" fill="none" xmlns="http://www.w3.org/2000/svg">
  <path width="56" height="56" rx="8" fill="#1C1C1C" d="M36.571 0H219.429A36.571 36.571 0 0 1 256 36.571V219.429A36.571 36.571 0 0 1 219.429 256H36.571A36.571 36.571 0 0 1 0 219.429V36.571A36.571 36.571 0 0 1 36.571 0z"/>
  <path x="7" y="31" width="25" height="14" rx="3" fill="#88B440" d="M45.714 141.714H132.571A13.714 13.714 0 0 1 146.286 155.429V192A13.714 13.714 0 0 1 132.571 205.714H45.714A13.714 13.714 0 0 1 32 192V155.429A13.714 13.714 0 0 1 45.714 141.714z"/>
  <path d="M192 141.714a32 32 0 1 0 0 64 32 32 0 0 0 0 -64" fill="#00B3CA"/>
  <path x="30" y="12" width="14" height="14" fill="#B771FF" d="M137.143 54.857H201.143V118.857H137.143V54.857z"/>
  <path x="16.5" y="23.5" width="10" height="2" fill="white" stroke="white" d="M75.429 107.429H121.143V116.571H75.429V107.429z" stroke-width="4.571428571428571"/>
</svg>
